<svg id="Group_10737" data-name="Group 10737" xmlns="http://www.w3.org/2000/svg" width="20.004" height="20.004" viewBox="0 0 20.004 20.004">
  <path id="login" d="M4.97,18.747H19.961l-7.069,7.069A.852.852,0,1,0,14.1,27.021L22.621,18.5a.852.852,0,0,0,0-1.205L14.1,8.767a.852.852,0,1,0-1.205,1.205l7.069,7.069H4.97a.852.852,0,0,0,0,1.7Z" transform="translate(-3.492 -7.892)" fill="#4d84ff"/>
  <path id="login_-_Outline" data-name="login - Outline" d="M13.62,28.021A1.477,1.477,0,0,1,12.575,25.5l6-6H5.1a1.478,1.478,0,1,1,0-2.955H18.577l-6-6a1.478,1.478,0,1,1,2.09-2.089l8.524,8.524a1.477,1.477,0,0,1,0,2.09l-8.524,8.524A1.468,1.468,0,0,1,13.62,28.021ZM5.1,17.792a.227.227,0,1,0,0,.455H21.6l-8.137,8.136a.227.227,0,1,0,.321.321L22.3,18.18a.227.227,0,0,0,0-.321L13.78,9.334a.227.227,0,1,0-.321.321L21.6,17.792Z" transform="translate(-3.618 -8.017)" fill="#4d84ff"/>
</svg>
