<svg id="_15x15" data-name="15x15" xmlns="http://www.w3.org/2000/svg" xmlns:xlink="http://www.w3.org/1999/xlink" width="15" height="15" viewBox="0 0 15 15">
  <defs>
    <clipPath id="clip-path">
      <rect id="Rectangle_4632" data-name="Rectangle 4632" width="15" height="15" fill="none"/>
    </clipPath>
  </defs>
  <g id="Mask_Group_304" data-name="Mask Group 304" clip-path="url(#clip-path)">
    <g id="password" transform="translate(-1.5 -1.5)">
      <path id="Path_21415" data-name="Path 21415" d="M2.806,16.5H8.875a1.165,1.165,0,0,0,1.164-1.164V11.322a.3.3,0,1,0-.6,0v4.014a.565.565,0,0,1-.564.564H2.806a.566.566,0,0,1-.567-.564V2.667A.568.568,0,0,1,2.806,2.1H8.875a.566.566,0,0,1,.564.567v2.1a.3.3,0,1,0,.6,0v-2.1A1.167,1.167,0,0,0,8.875,1.5H2.806A1.168,1.168,0,0,0,1.639,2.667V15.336A1.167,1.167,0,0,0,2.806,16.5Z" fill="#1d1d1d"/>
      <path id="Path_21416" data-name="Path 21416" d="M7.593,2.77a.3.3,0,0,0-.3-.3H4.385a.3.3,0,0,0,0,.6H7.293A.3.3,0,0,0,7.593,2.77Z" fill="#1d1d1d"/>
      <path id="Path_21417" data-name="Path 21417" d="M5.631,15.531h.416a.3.3,0,0,0,0-.6H5.631a.3.3,0,0,0,0,.6Z" fill="#1d1d1d"/>
      <path id="Path_21418" data-name="Path 21418" d="M8.429,2.984a.314.314,0,0,0,.087-.213.3.3,0,0,0-.087-.213.314.314,0,0,0-.426,0,.3.3,0,0,0-.087.213.3.3,0,0,0,.513.213Z" fill="#1d1d1d"/>
      <path id="Path_21419" data-name="Path 21419" d="M5.54,5.969v5.355a.3.3,0,0,0,.171.27.272.272,0,0,0,.129.03.3.3,0,0,0,.189-.066l1.392-1.134h8.64a.3.3,0,0,0,.3-.3V5.969a.3.3,0,0,0-.3-.3H5.84a.3.3,0,0,0-.3.3Zm7.539,1.915a.3.3,0,1,1,.3-.52l.283.163V7.2a.3.3,0,1,1,.6,0v.326l.283-.163a.3.3,0,1,1,.3.52l-.283.163.283.163a.3.3,0,1,1-.3.52l-.283-.163v.326a.3.3,0,1,1-.6,0V8.566l-.283.163a.3.3,0,1,1-.3-.52l.283-.163Zm-3.011,0a.3.3,0,1,1,.3-.52l.283.163V7.2a.3.3,0,1,1,.6,0v.326l.283-.163a.3.3,0,1,1,.3.52l-.283.164.283.163a.3.3,0,1,1-.3.52l-.283-.163v.327a.3.3,0,1,1-.6,0V8.566l-.283.163a.3.3,0,1,1-.3-.52l.283-.163Zm-3.012,0a.3.3,0,1,1,.3-.52l.283.163V7.2a.3.3,0,0,1,.6,0v.326l.283-.163a.3.3,0,0,1,.3.52l-.283.164.283.163a.3.3,0,1,1-.3.52l-.283-.163v.327a.3.3,0,0,1-.6,0V8.566l-.283.163a.3.3,0,0,1-.3-.52l.283-.163Z" fill="#1d1d1d"/>
    </g>
  </g>
</svg>
