<svg xmlns="http://www.w3.org/2000/svg" width="69.476" height="69.2" viewBox="0 0 69.476 69.2">
  <g id="Group_16139" data-name="Group 16139" transform="translate(-30 -30)">
    <g id="Group_16138" data-name="Group 16138">
      <path id="Path_24819" data-name="Path 24819" d="M7.5-7.711a.674.674,0,0,1,.478.192.632.632,0,0,1,.2.478V-.671A.66.66,0,0,1,8-.192.659.659,0,0,1,7.5,0,.688.688,0,0,1,7-.187a.645.645,0,0,1-.193-.484V-5.1L4.994-2.332a.938.938,0,0,1-.253.215.511.511,0,0,1-.3.071.49.49,0,0,1-.286-.071A.938.938,0,0,1,3.9-2.332L2.09-5.2V-.671a.678.678,0,0,1-.176.484A.605.605,0,0,1,1.452,0,.584.584,0,0,1,1-.192.682.682,0,0,1,.825-.671V-7.04a.637.637,0,0,1,.2-.473.677.677,0,0,1,.489-.2.732.732,0,0,1,.33.082.638.638,0,0,1,.253.214L4.5-3.729,6.963-7.414A.669.669,0,0,1,7.2-7.628.616.616,0,0,1,7.5-7.711ZM14.487-6a.641.641,0,0,1,.473.187.655.655,0,0,1,.187.484V-.671a.66.66,0,0,1-.187.479A.631.631,0,0,1,14.487,0a.623.623,0,0,1-.467-.187.692.692,0,0,1-.193-.473,2.257,2.257,0,0,1-.743.544A2.238,2.238,0,0,1,12.1.11a2.515,2.515,0,0,1-1.375-.39,2.738,2.738,0,0,1-.974-1.083,3.381,3.381,0,0,1-.358-1.573,3.459,3.459,0,0,1,.352-1.579A2.7,2.7,0,0,1,10.708-5.6,2.45,2.45,0,0,1,12.056-6a2.548,2.548,0,0,1,.99.193,2.6,2.6,0,0,1,.781.489v-.011a.66.66,0,0,1,.187-.478A.631.631,0,0,1,14.487-6ZM12.265-1.1a1.469,1.469,0,0,0,1.166-.522,1.94,1.94,0,0,0,.451-1.314,1.961,1.961,0,0,0-.451-1.32,1.462,1.462,0,0,0-1.166-.528,1.451,1.451,0,0,0-1.155.528,1.961,1.961,0,0,0-.451,1.32A1.955,1.955,0,0,0,11.1-1.622,1.453,1.453,0,0,0,12.265-1.1ZM19.723-6a1.7,1.7,0,0,1,1.551.666A3.383,3.383,0,0,1,21.7-3.487V-.671a.66.66,0,0,1-.187.479A.631.631,0,0,1,21.043,0a.631.631,0,0,1-.473-.192.66.66,0,0,1-.187-.479V-3.487a1.585,1.585,0,0,0-.253-.951,1,1,0,0,0-.869-.346,1.341,1.341,0,0,0-1,.368,1.27,1.27,0,0,0-.363.93V-.671a.66.66,0,0,1-.187.479A.631.631,0,0,1,17.237,0a.631.631,0,0,1-.473-.192.66.66,0,0,1-.187-.479V-5.214a.66.66,0,0,1,.187-.478.631.631,0,0,1,.473-.193.631.631,0,0,1,.473.193.66.66,0,0,1,.187.478v.187a2.657,2.657,0,0,1,.775-.682A2.01,2.01,0,0,1,19.723-6ZM27.9-6a.641.641,0,0,1,.473.187.655.655,0,0,1,.187.484V-.671a.66.66,0,0,1-.187.479A.631.631,0,0,1,27.9,0a.623.623,0,0,1-.468-.187.692.692,0,0,1-.192-.473,2.257,2.257,0,0,1-.743.544,2.238,2.238,0,0,1-.985.225,2.515,2.515,0,0,1-1.375-.39,2.738,2.738,0,0,1-.973-1.083A3.381,3.381,0,0,1,22.8-2.937a3.459,3.459,0,0,1,.352-1.579A2.7,2.7,0,0,1,24.117-5.6,2.45,2.45,0,0,1,25.465-6a2.548,2.548,0,0,1,.99.193,2.6,2.6,0,0,1,.781.489v-.011a.66.66,0,0,1,.187-.478A.631.631,0,0,1,27.9-6ZM25.674-1.1a1.469,1.469,0,0,0,1.166-.522,1.94,1.94,0,0,0,.451-1.314,1.961,1.961,0,0,0-.451-1.32,1.462,1.462,0,0,0-1.166-.528,1.451,1.451,0,0,0-1.155.528,1.961,1.961,0,0,0-.451,1.32,1.955,1.955,0,0,0,.446,1.314A1.453,1.453,0,0,0,25.674-1.1ZM34.859-6a.641.641,0,0,1,.473.187.655.655,0,0,1,.187.484V-.429a2.354,2.354,0,0,1-.831,1.985,3.338,3.338,0,0,1-2.106.644,5.166,5.166,0,0,1-.908-.11,4,4,0,0,1-.819-.22q-.539-.231-.539-.638a.565.565,0,0,1,.033-.176.682.682,0,0,1,.226-.368.546.546,0,0,1,.347-.127.657.657,0,0,1,.209.033q.044.011.545.2a2.556,2.556,0,0,0,.908.193A1.909,1.909,0,0,0,33.8.665a1.114,1.114,0,0,0,.4-.918V-.781a2.192,2.192,0,0,1-.732.616,2.11,2.11,0,0,1-1.05.275,2.617,2.617,0,0,1-1.4-.39,2.735,2.735,0,0,1-1-1.083,3.339,3.339,0,0,1-.363-1.573,3.415,3.415,0,0,1,.358-1.579A2.715,2.715,0,0,1,30.993-5.6,2.542,2.542,0,0,1,32.373-6a2.4,2.4,0,0,1,1.045.231A2.458,2.458,0,0,1,34.2-5.2v-.121a.66.66,0,0,1,.187-.478A.631.631,0,0,1,34.859-6ZM32.582-1.1a1.542,1.542,0,0,0,1.2-.522,1.9,1.9,0,0,0,.468-1.314,1.918,1.918,0,0,0-.468-1.32,1.535,1.535,0,0,0-1.2-.528,1.519,1.519,0,0,0-1.2.528,1.932,1.932,0,0,0-.462,1.32,1.912,1.912,0,0,0,.462,1.314A1.526,1.526,0,0,0,32.582-1.1Zm9.427-1.98a.565.565,0,0,1-.209.429.7.7,0,0,1-.462.165h-3.63a1.659,1.659,0,0,0,.6,1.018A1.691,1.691,0,0,0,39.38-1.1a2.365,2.365,0,0,0,.7-.082,1.834,1.834,0,0,0,.4-.176l.2-.127a.839.839,0,0,1,.374-.1.54.54,0,0,1,.4.165.528.528,0,0,1,.165.385.687.687,0,0,1-.308.539,2.628,2.628,0,0,1-.825.429A3.223,3.223,0,0,1,39.446.11a3.244,3.244,0,0,1-1.611-.385,2.687,2.687,0,0,1-1.062-1.062A3.1,3.1,0,0,1,36.4-2.86a3.373,3.373,0,0,1,.4-1.661A2.812,2.812,0,0,1,37.84-5.615,2.7,2.7,0,0,1,39.226-6a2.57,2.57,0,0,1,1.37.4,2.96,2.96,0,0,1,1.028,1.067A2.868,2.868,0,0,1,42.009-3.08Zm-2.783-1.7a1.365,1.365,0,0,0-1.507,1.2H40.6v-.077a1.137,1.137,0,0,0-.451-.792A1.428,1.428,0,0,0,39.226-4.785ZM49.9-6a1.638,1.638,0,0,1,1.507.666,3.454,3.454,0,0,1,.418,1.842V-.671a.66.66,0,0,1-.187.479A.631.631,0,0,1,51.161,0a.632.632,0,0,1-.473-.192A.66.66,0,0,1,50.5-.671V-3.487a1.668,1.668,0,0,0-.236-.951.933.933,0,0,0-.83-.346,1.257,1.257,0,0,0-.963.368,1.3,1.3,0,0,0-.347.93V-.671a.66.66,0,0,1-.187.479A.631.631,0,0,1,47.465,0a.631.631,0,0,1-.473-.192.66.66,0,0,1-.187-.479V-3.487a1.668,1.668,0,0,0-.236-.951.933.933,0,0,0-.831-.346,1.257,1.257,0,0,0-.962.368,1.3,1.3,0,0,0-.347.93V-.671a.66.66,0,0,1-.187.479A.631.631,0,0,1,43.769,0,.631.631,0,0,1,43.3-.192a.66.66,0,0,1-.187-.479V-5.214a.66.66,0,0,1,.187-.478.631.631,0,0,1,.473-.193.631.631,0,0,1,.473.193.66.66,0,0,1,.187.478v.176a2.686,2.686,0,0,1,.754-.677A1.9,1.9,0,0,1,46.2-6a1.665,1.665,0,0,1,1.771,1.21,2.591,2.591,0,0,1,.764-.836A1.917,1.917,0,0,1,49.9-6ZM58.531-3.08a.565.565,0,0,1-.209.429.7.7,0,0,1-.462.165H54.23a1.659,1.659,0,0,0,.6,1.018A1.691,1.691,0,0,0,55.9-1.1a2.365,2.365,0,0,0,.7-.082,1.833,1.833,0,0,0,.4-.176l.2-.127a.839.839,0,0,1,.374-.1.54.54,0,0,1,.4.165.528.528,0,0,1,.165.385.687.687,0,0,1-.308.539,2.628,2.628,0,0,1-.825.429A3.223,3.223,0,0,1,55.968.11a3.244,3.244,0,0,1-1.611-.385,2.687,2.687,0,0,1-1.062-1.062,3.1,3.1,0,0,1-.374-1.523,3.373,3.373,0,0,1,.4-1.661,2.812,2.812,0,0,1,1.045-1.095A2.7,2.7,0,0,1,55.748-6a2.57,2.57,0,0,1,1.369.4,2.96,2.96,0,0,1,1.028,1.067A2.868,2.868,0,0,1,58.531-3.08Zm-2.783-1.7a1.365,1.365,0,0,0-1.507,1.2h2.882v-.077a1.137,1.137,0,0,0-.451-.792A1.428,1.428,0,0,0,55.748-4.785ZM62.777-6a1.7,1.7,0,0,1,1.551.666,3.383,3.383,0,0,1,.429,1.842V-.671a.66.66,0,0,1-.187.479A.631.631,0,0,1,64.1,0a.631.631,0,0,1-.473-.192.66.66,0,0,1-.187-.479V-3.487a1.585,1.585,0,0,0-.253-.951,1,1,0,0,0-.869-.346,1.341,1.341,0,0,0-1,.368,1.27,1.27,0,0,0-.363.93V-.671a.66.66,0,0,1-.187.479A.631.631,0,0,1,60.291,0a.631.631,0,0,1-.473-.192.66.66,0,0,1-.187-.479V-5.214a.66.66,0,0,1,.187-.478.631.631,0,0,1,.473-.193.631.631,0,0,1,.473.193.66.66,0,0,1,.187.478v.187a2.657,2.657,0,0,1,.776-.682A2.01,2.01,0,0,1,62.777-6Zm6.248,4.752a.366.366,0,0,1,.281.148.582.582,0,0,1,.126.391.588.588,0,0,1-.325.5,1.348,1.348,0,0,1-.731.2,2.132,2.132,0,0,1-1.149-.292,1.359,1.359,0,0,1-.467-1.238V-4.565h-.506a.6.6,0,0,1-.44-.176.6.6,0,0,1-.176-.44.566.566,0,0,1,.176-.424.607.607,0,0,1,.44-.17h.506v-.7a.65.65,0,0,1,.192-.478.65.65,0,0,1,.479-.192.618.618,0,0,1,.462.192.66.66,0,0,1,.187.478v.7h.781a.6.6,0,0,1,.44.176.6.6,0,0,1,.176.44.566.566,0,0,1-.176.424.607.607,0,0,1-.44.17h-.781v2.981a.421.421,0,0,0,.121.335.488.488,0,0,0,.33.1.944.944,0,0,0,.242-.044A.657.657,0,0,1,69.025-1.243Z" transform="translate(30 97)" fill="#1d1d1d"/>
      <g id="Group_15204" data-name="Group 15204" transform="translate(-113 -395)">
        <path id="Path_19227" data-name="Path 19227" d="M-54.5-57.247a3.469,3.469,0,0,1,2.063.619,1.833,1.833,0,0,1,.871,1.536,2.267,2.267,0,0,1-.573,1.673,1.9,1.9,0,0,1-1.4.573,4.366,4.366,0,0,1-1.238-.275,5.147,5.147,0,0,0-1.513-.321,4.662,4.662,0,0,0-2.774.986,7.216,7.216,0,0,0-2.2,2.705,8.535,8.535,0,0,0-.848,3.828v11.049a2.163,2.163,0,0,1-.619,1.559,2.1,2.1,0,0,1-1.582.642,2.066,2.066,0,0,1-1.559-.619,2.187,2.187,0,0,1-.6-1.582V-54.5a2.163,2.163,0,0,1,.619-1.559A2.048,2.048,0,0,1-64.31-56.7a2.1,2.1,0,0,1,1.582.642,2.163,2.163,0,0,1,.619,1.559v2.338A8.679,8.679,0,0,1-59.084-55.8,8.119,8.119,0,0,1-54.5-57.247ZM-29.053-66.6a2.142,2.142,0,0,1,1.582.619,2.142,2.142,0,0,1,.619,1.582v29.526a2.163,2.163,0,0,1-.619,1.559,2.1,2.1,0,0,1-1.582.642,2.066,2.066,0,0,1-1.559-.619,2.187,2.187,0,0,1-.6-1.582v-1.284a9.275,9.275,0,0,1-3.232,2.8,9.139,9.139,0,0,1-4.47,1.146,10.284,10.284,0,0,1-5.639-1.6,11.234,11.234,0,0,1-3.989-4.47,13.928,13.928,0,0,1-1.467-6.442,14.111,14.111,0,0,1,1.444-6.442,11.071,11.071,0,0,1,3.966-4.47,10.126,10.126,0,0,1,5.548-1.6,10.091,10.091,0,0,1,4.493,1.009,9.606,9.606,0,0,1,3.347,2.613V-64.4a2.187,2.187,0,0,1,.6-1.582A2.066,2.066,0,0,1-29.053-66.6Zm-9.353,30.351a6.81,6.81,0,0,0,3.828-1.1,7.437,7.437,0,0,0,2.613-3.026,9.8,9.8,0,0,0,.94-4.356,9.842,9.842,0,0,0-.94-4.333,7.406,7.406,0,0,0-2.613-3.049,6.81,6.81,0,0,0-3.828-1.1,6.81,6.81,0,0,0-3.828,1.1,7.406,7.406,0,0,0-2.613,3.049,9.842,9.842,0,0,0-.94,4.333,9.8,9.8,0,0,0,.94,4.356,7.437,7.437,0,0,0,2.613,3.026A6.81,6.81,0,0,0-38.406-36.249Zm30.076-21a10.284,10.284,0,0,1,5.639,1.6A11.1,11.1,0,0,1,1.275-51.2a13.969,13.969,0,0,1,1.444,6.419,14.253,14.253,0,0,1-1.444,6.465,11.038,11.038,0,0,1-3.966,4.493,10.126,10.126,0,0,1-5.548,1.6,9.632,9.632,0,0,1-4.447-1.054,10.375,10.375,0,0,1-3.347-2.613v1.33a2.163,2.163,0,0,1-.619,1.559,2.1,2.1,0,0,1-1.582.642,2.085,2.085,0,0,1-1.536-.619,2.142,2.142,0,0,1-.619-1.582V-64.4a2.187,2.187,0,0,1,.6-1.582,2.066,2.066,0,0,1,1.559-.619,2.1,2.1,0,0,1,1.582.642,2.163,2.163,0,0,1,.619,1.559v11.187a9.183,9.183,0,0,1,3.209-2.843A8.989,8.989,0,0,1-8.33-57.247Zm-.5,21a6.74,6.74,0,0,0,3.805-1.123,7.508,7.508,0,0,0,2.636-3.072,9.842,9.842,0,0,0,.94-4.333,9.7,9.7,0,0,0-.94-4.31,7.376,7.376,0,0,0-2.636-3.026,6.842,6.842,0,0,0-3.805-1.1,6.921,6.921,0,0,0-3.851,1.1,7.409,7.409,0,0,0-2.636,3,9.655,9.655,0,0,0-.94,4.333,9.8,9.8,0,0,0,.94,4.356,7.54,7.54,0,0,0,2.636,3.049A6.818,6.818,0,0,0-8.834-36.249Z" transform="translate(209.465 491.6)"/>
        <path id="Path_19228" data-name="Path 19228" d="M-68.02-5.342a.183.183,0,0,1,.094.156.194.194,0,0,1-.025.081.181.181,0,0,1-.069.069.186.186,0,0,1-.094.025.211.211,0,0,1-.106-.025A.7.7,0,0,1-68.5-5.36a1.789,1.789,0,0,1-.106-.717.711.711,0,0,0-.243-.614.956.956,0,0,0-.58-.178h-1.385v1.678a.188.188,0,0,1-.05.134A.172.172,0,0,1-71-5a.223.223,0,0,1-.15-.053.168.168,0,0,1-.062-.134V-9.183a.182.182,0,0,1,.053-.134.182.182,0,0,1,.134-.053h1.684a1.309,1.309,0,0,1,.636.153,1.127,1.127,0,0,1,.44.421,1.163,1.163,0,0,1,.159.6,1.2,1.2,0,0,1-.209.7,1.055,1.055,0,0,1-.546.415.956.956,0,0,1,.449.359,1.088,1.088,0,0,1,.181.614,2.274,2.274,0,0,0,.053.543A.358.358,0,0,0-68.02-5.342Zm-1.3-1.871a.852.852,0,0,0,.405-.143.905.905,0,0,0,.3-.337,1.024,1.024,0,0,0,.112-.486.788.788,0,0,0-.24-.589A.86.86,0,0,0-69.368-9h-1.447v1.79Zm4.809-.979a.177.177,0,0,1,.134.056A.192.192,0,0,1-64.322-8v2.807a.182.182,0,0,1-.053.134A.182.182,0,0,1-64.509-5a.182.182,0,0,1-.134-.053.182.182,0,0,1-.053-.134V-5.61a1.307,1.307,0,0,1-.468.474,1.266,1.266,0,0,1-.68.193,1.343,1.343,0,0,1-.752-.218,1.5,1.5,0,0,1-.524-.6,1.884,1.884,0,0,1-.19-.854,1.84,1.84,0,0,1,.193-.851,1.482,1.482,0,0,1,.527-.589,1.35,1.35,0,0,1,.739-.212,1.343,1.343,0,0,1,.686.181,1.191,1.191,0,0,1,.468.474V-8a.192.192,0,0,1,.053-.137A.177.177,0,0,1-64.509-8.192Zm-1.3,2.9a1.032,1.032,0,0,0,.583-.172,1.162,1.162,0,0,0,.405-.474,1.532,1.532,0,0,0,.147-.677,1.483,1.483,0,0,0-.147-.661,1.166,1.166,0,0,0-.405-.471,1.032,1.032,0,0,0-.583-.172,1.046,1.046,0,0,0-.583.168,1.148,1.148,0,0,0-.405.465,1.492,1.492,0,0,0-.147.67,1.56,1.56,0,0,0,.143.677,1.14,1.14,0,0,0,.4.474A1.043,1.043,0,0,0-65.806-5.292Zm6.081-2.925a.975.975,0,0,1,.826.346,1.463,1.463,0,0,1,.265.914v1.765a.182.182,0,0,1-.053.134A.182.182,0,0,1-58.821-5a.182.182,0,0,1-.134-.053.182.182,0,0,1-.053-.134V-6.938a1.079,1.079,0,0,0-.2-.67.714.714,0,0,0-.608-.259,1.039,1.039,0,0,0-.5.125,1.026,1.026,0,0,0-.377.34.822.822,0,0,0-.143.465v1.746a.182.182,0,0,1-.053.134A.182.182,0,0,1-61.017-5a.182.182,0,0,1-.134-.053.182.182,0,0,1-.053-.134V-6.957a1.078,1.078,0,0,0-.187-.658.681.681,0,0,0-.586-.253.991.991,0,0,0-.483.125,1.034,1.034,0,0,0-.368.334.8.8,0,0,0-.14.452v1.765a.182.182,0,0,1-.053.134A.182.182,0,0,1-63.156-5a.182.182,0,0,1-.134-.053.182.182,0,0,1-.053-.134V-7.986a.182.182,0,0,1,.053-.134.182.182,0,0,1,.134-.053.182.182,0,0,1,.134.053.182.182,0,0,1,.053.134v.362a1.356,1.356,0,0,1,.455-.424,1.177,1.177,0,0,1,.6-.168,1.1,1.1,0,0,1,.624.175.953.953,0,0,1,.374.511,1.156,1.156,0,0,1,.48-.48A1.376,1.376,0,0,1-59.726-8.217Zm4.659.025a.177.177,0,0,1,.134.056A.192.192,0,0,1-54.879-8v2.807a.182.182,0,0,1-.053.134A.182.182,0,0,1-55.067-5a.182.182,0,0,1-.134-.053.182.182,0,0,1-.053-.134V-5.61a1.307,1.307,0,0,1-.468.474,1.266,1.266,0,0,1-.68.193,1.343,1.343,0,0,1-.752-.218,1.5,1.5,0,0,1-.524-.6,1.884,1.884,0,0,1-.19-.854,1.84,1.84,0,0,1,.193-.851,1.482,1.482,0,0,1,.527-.589,1.35,1.35,0,0,1,.739-.212,1.343,1.343,0,0,1,.686.181,1.191,1.191,0,0,1,.468.474V-8a.192.192,0,0,1,.053-.137A.177.177,0,0,1-55.067-8.192Zm-1.3,2.9a1.032,1.032,0,0,0,.583-.172,1.162,1.162,0,0,0,.405-.474,1.532,1.532,0,0,0,.147-.677,1.483,1.483,0,0,0-.147-.661,1.166,1.166,0,0,0-.405-.471,1.032,1.032,0,0,0-.583-.172,1.046,1.046,0,0,0-.583.168,1.148,1.148,0,0,0-.405.465,1.492,1.492,0,0,0-.147.67,1.56,1.56,0,0,0,.143.677,1.14,1.14,0,0,0,.4.474A1.043,1.043,0,0,0-56.364-5.292Zm5.114-2.9a.177.177,0,0,1,.134.056A.192.192,0,0,1-51.063-8v2.807a.182.182,0,0,1-.053.134A.182.182,0,0,1-51.25-5a.182.182,0,0,1-.134-.053.182.182,0,0,1-.053-.134V-5.61a1.307,1.307,0,0,1-.468.474,1.266,1.266,0,0,1-.68.193,1.343,1.343,0,0,1-.752-.218,1.5,1.5,0,0,1-.524-.6,1.884,1.884,0,0,1-.19-.854,1.84,1.84,0,0,1,.193-.851,1.482,1.482,0,0,1,.527-.589,1.35,1.35,0,0,1,.739-.212,1.343,1.343,0,0,1,.686.181,1.191,1.191,0,0,1,.468.474V-8a.192.192,0,0,1,.053-.137A.177.177,0,0,1-51.25-8.192Zm-1.3,2.9a1.032,1.032,0,0,0,.583-.172,1.162,1.162,0,0,0,.405-.474,1.532,1.532,0,0,0,.147-.677,1.483,1.483,0,0,0-.147-.661,1.166,1.166,0,0,0-.405-.471,1.032,1.032,0,0,0-.583-.172,1.046,1.046,0,0,0-.583.168,1.148,1.148,0,0,0-.405.465,1.492,1.492,0,0,0-.147.67,1.56,1.56,0,0,0,.143.677,1.14,1.14,0,0,0,.4.474A1.043,1.043,0,0,0-52.547-5.292Zm4.459-.062a.177.177,0,0,1,.131.05.169.169,0,0,1,.05.125.169.169,0,0,1-.05.125.177.177,0,0,1-.131.05h-2.027a.163.163,0,0,1-.131-.059.188.188,0,0,1-.05-.122.208.208,0,0,1,.056-.143l1.846-2.557h-1.565a.18.18,0,0,1-.128-.05.164.164,0,0,1-.053-.125.164.164,0,0,1,.053-.125.18.18,0,0,1,.128-.05h1.915a.16.16,0,0,1,.125.056.191.191,0,0,1,.05.131.232.232,0,0,1-.05.137l-1.852,2.557Zm4.565-4.017a1.67,1.67,0,0,1,1.007.3,1.792,1.792,0,0,1,.611.792,2.866,2.866,0,0,1,.2,1.095,2.894,2.894,0,0,1-.2,1.11,1.754,1.754,0,0,1-.611.783A1.7,1.7,0,0,1-43.522-5h-1.59a.182.182,0,0,1-.134-.053.182.182,0,0,1-.053-.134V-9.183a.182.182,0,0,1,.053-.134.182.182,0,0,1,.134-.053Zm-.062,4a1.294,1.294,0,0,0,1.116-.5A2.168,2.168,0,0,0-42.1-7.188a2.545,2.545,0,0,0-.156-.914,1.426,1.426,0,0,0-.49-.655A1.374,1.374,0,0,0-43.585-9h-1.322v3.63Zm3.037.181a.182.182,0,0,1-.053.134A.182.182,0,0,1-40.734-5a.182.182,0,0,1-.134-.053.182.182,0,0,1-.053-.134V-8.061a.182.182,0,0,1,.053-.134.182.182,0,0,1,.134-.053.182.182,0,0,1,.134.053.182.182,0,0,1,.053.134Zm-.187-3.474a.287.287,0,0,1-.193-.059A.214.214,0,0,1-41-8.9v-.062a.21.21,0,0,1,.072-.172.3.3,0,0,1,.2-.059q.249,0,.249.231V-8.9a.219.219,0,0,1-.065.172A.274.274,0,0,1-40.734-8.666Zm3.854.474a.182.182,0,0,1,.134.053.19.19,0,0,1,.053.14v2.7a1.62,1.62,0,0,1-.2.833,1.342,1.342,0,0,1-.555.527,1.744,1.744,0,0,1-.808.181,2.014,2.014,0,0,1-.458-.056,1.826,1.826,0,0,1-.412-.143q-.172-.087-.2-.181a.137.137,0,0,1-.044-.1.115.115,0,0,1,.056-.1.1.1,0,0,1,.062-.019.484.484,0,0,1,.143.044l.131.056a2.011,2.011,0,0,0,.723.15,1.176,1.176,0,0,0,.87-.315,1.15,1.15,0,0,0,.315-.851V-5.66a1.15,1.15,0,0,1-.493.527,1.413,1.413,0,0,1-.7.19,1.441,1.441,0,0,1-.776-.215,1.512,1.512,0,0,1-.546-.6,1.811,1.811,0,0,1-.2-.854,1.8,1.8,0,0,1,.2-.848,1.512,1.512,0,0,1,.546-.6,1.43,1.43,0,0,1,.77-.215,1.374,1.374,0,0,1,.72.2,1.316,1.316,0,0,1,.483.471V-8a.192.192,0,0,1,.053-.137A.177.177,0,0,1-36.88-8.192Zm-1.353,2.9a1.157,1.157,0,0,0,.614-.165,1.13,1.13,0,0,0,.424-.468,1.493,1.493,0,0,0,.153-.683,1.474,1.474,0,0,0-.153-.68,1.134,1.134,0,0,0-.424-.465,1.157,1.157,0,0,0-.614-.165,1.114,1.114,0,0,0-.608.172,1.178,1.178,0,0,0-.424.471,1.446,1.446,0,0,0-.153.667,1.46,1.46,0,0,0,.153.674,1.178,1.178,0,0,0,.424.471A1.114,1.114,0,0,0-38.233-5.292Zm2.888.1a.182.182,0,0,1-.053.134A.182.182,0,0,1-35.533-5a.182.182,0,0,1-.134-.053.182.182,0,0,1-.053-.134V-8.061a.182.182,0,0,1,.053-.134.182.182,0,0,1,.134-.053.182.182,0,0,1,.134.053.182.182,0,0,1,.053.134Zm-.187-3.474a.287.287,0,0,1-.193-.059.214.214,0,0,1-.069-.172v-.062a.21.21,0,0,1,.072-.172.3.3,0,0,1,.2-.059q.249,0,.249.231V-8.9a.219.219,0,0,1-.065.172A.274.274,0,0,1-35.533-8.666Zm1.784.836v2.089a.447.447,0,0,0,.087.321.318.318,0,0,0,.231.084.363.363,0,0,0,.094-.016.352.352,0,0,1,.087-.016.124.124,0,0,1,.1.047.161.161,0,0,1,.041.109.171.171,0,0,1-.1.147A.456.456,0,0,1-33.45-5a1.3,1.3,0,0,1-.3-.031A.475.475,0,0,1-34-5.223a.815.815,0,0,1-.122-.5V-7.83h-.455a.18.18,0,0,1-.128-.05A.164.164,0,0,1-34.76-8a.164.164,0,0,1,.053-.125.18.18,0,0,1,.128-.05h.455v-.692a.182.182,0,0,1,.053-.134.182.182,0,0,1,.134-.053.182.182,0,0,1,.134.053.182.182,0,0,1,.053.134v.692h.624A.163.163,0,0,1-33-8.123.178.178,0,0,1-32.951-8a.159.159,0,0,1-.05.122.175.175,0,0,1-.125.047Zm4.079-.362a.177.177,0,0,1,.134.056A.192.192,0,0,1-29.483-8v2.807a.182.182,0,0,1-.053.134A.182.182,0,0,1-29.67-5a.182.182,0,0,1-.134-.053.182.182,0,0,1-.053-.134V-5.61a1.307,1.307,0,0,1-.468.474,1.266,1.266,0,0,1-.68.193,1.343,1.343,0,0,1-.752-.218,1.5,1.5,0,0,1-.524-.6,1.884,1.884,0,0,1-.19-.854,1.84,1.84,0,0,1,.193-.851,1.482,1.482,0,0,1,.527-.589,1.35,1.35,0,0,1,.739-.212,1.343,1.343,0,0,1,.686.181,1.191,1.191,0,0,1,.468.474V-8a.192.192,0,0,1,.053-.137A.177.177,0,0,1-29.67-8.192Zm-1.3,2.9a1.032,1.032,0,0,0,.583-.172,1.162,1.162,0,0,0,.405-.474,1.532,1.532,0,0,0,.147-.677,1.483,1.483,0,0,0-.147-.661,1.166,1.166,0,0,0-.405-.471,1.032,1.032,0,0,0-.583-.172,1.046,1.046,0,0,0-.583.168,1.148,1.148,0,0,0-.405.465,1.492,1.492,0,0,0-.147.67,1.56,1.56,0,0,0,.143.677,1.14,1.14,0,0,0,.4.474A1.043,1.043,0,0,0-30.968-5.292Zm2.875.1a.182.182,0,0,1-.053.134A.182.182,0,0,1-28.279-5a.182.182,0,0,1-.134-.053.182.182,0,0,1-.053-.134V-9.433a.182.182,0,0,1,.053-.134.182.182,0,0,1,.134-.053.182.182,0,0,1,.134.053.182.182,0,0,1,.053.134Zm5.152-2.133a1.139,1.139,0,0,1,.611.374,1.092,1.092,0,0,1,.237.73,1.1,1.1,0,0,1-.377.914,1.453,1.453,0,0,1-.939.3h-1.678a.182.182,0,0,1-.134-.053.182.182,0,0,1-.053-.134V-9.183a.182.182,0,0,1,.053-.134.182.182,0,0,1,.134-.053h1.653a1.129,1.129,0,0,1,.82.287,1.043,1.043,0,0,1,.3.786,1.1,1.1,0,0,1-.162.592A.928.928,0,0,1-22.941-7.325Zm.225-.942a.716.716,0,0,0-.2-.539.777.777,0,0,0-.564-.2h-1.391v1.559h1.391a.775.775,0,0,0,.552-.218A.812.812,0,0,0-22.716-8.267Zm-.711,2.894a1.034,1.034,0,0,0,.677-.212.774.774,0,0,0,.259-.636.762.762,0,0,0-.265-.642,1.081,1.081,0,0,0-.683-.206h-1.434v1.7Zm4.709-2.819a.177.177,0,0,1,.134.056A.192.192,0,0,1-18.531-8v2.807a.182.182,0,0,1-.053.134A.182.182,0,0,1-18.718-5a.182.182,0,0,1-.134-.053.182.182,0,0,1-.053-.134V-5.61a1.307,1.307,0,0,1-.468.474,1.266,1.266,0,0,1-.68.193,1.343,1.343,0,0,1-.752-.218,1.5,1.5,0,0,1-.524-.6,1.884,1.884,0,0,1-.19-.854,1.84,1.84,0,0,1,.193-.851,1.482,1.482,0,0,1,.527-.589,1.35,1.35,0,0,1,.739-.212,1.343,1.343,0,0,1,.686.181,1.191,1.191,0,0,1,.468.474V-8a.192.192,0,0,1,.053-.137A.177.177,0,0,1-18.718-8.192Zm-1.3,2.9a1.032,1.032,0,0,0,.583-.172,1.162,1.162,0,0,0,.405-.474,1.532,1.532,0,0,0,.147-.677,1.483,1.483,0,0,0-.147-.661,1.166,1.166,0,0,0-.405-.471,1.032,1.032,0,0,0-.583-.172,1.046,1.046,0,0,0-.583.168A1.148,1.148,0,0,0-21-7.284a1.492,1.492,0,0,0-.147.67,1.56,1.56,0,0,0,.143.677,1.14,1.14,0,0,0,.4.474A1.043,1.043,0,0,0-20.016-5.292Zm3.967-2.975a1.024,1.024,0,0,1,.851.34,1.4,1.4,0,0,1,.271.9v1.834a.177.177,0,0,1-.056.134A.185.185,0,0,1-15.114-5a.182.182,0,0,1-.134-.053.182.182,0,0,1-.053-.134V-7.007a1.019,1.019,0,0,0-.2-.658.756.756,0,0,0-.627-.253,1.087,1.087,0,0,0-.508.125,1.087,1.087,0,0,0-.39.334.761.761,0,0,0-.15.452v1.815a.182.182,0,0,1-.053.134A.182.182,0,0,1-17.365-5a.182.182,0,0,1-.134-.053.182.182,0,0,1-.053-.134V-7.986A.182.182,0,0,1-17.5-8.12a.182.182,0,0,1,.134-.053.182.182,0,0,1,.134.053.182.182,0,0,1,.053.134v.343a1.323,1.323,0,0,1,.483-.446A1.3,1.3,0,0,1-16.049-8.267Zm4.628,2.931a.208.208,0,0,1,.056.143.165.165,0,0,1-.065.134A.2.2,0,0,1-11.552-5a.171.171,0,0,1-.137-.069l-1.378-1.459-.468.4v.942a.182.182,0,0,1-.053.134A.182.182,0,0,1-13.723-5a.182.182,0,0,1-.134-.053.182.182,0,0,1-.053-.134V-9.433a.182.182,0,0,1,.053-.134.182.182,0,0,1,.134-.053.182.182,0,0,1,.134.053.182.182,0,0,1,.053.134v2.844l1.8-1.553A.171.171,0,0,1-11.6-8.2a.169.169,0,0,1,.125.059.183.183,0,0,1,.056.128.2.2,0,0,1-.069.143l-1.285,1.091Zm1.173.143a.182.182,0,0,1-.053.134A.182.182,0,0,1-10.436-5a.182.182,0,0,1-.134-.053.182.182,0,0,1-.053-.134V-8.061a.182.182,0,0,1,.053-.134.182.182,0,0,1,.134-.053.182.182,0,0,1,.134.053.182.182,0,0,1,.053.134Zm-.187-3.474a.287.287,0,0,1-.193-.059A.214.214,0,0,1-10.7-8.9v-.062a.21.21,0,0,1,.072-.172.3.3,0,0,1,.2-.059q.249,0,.249.231V-8.9a.219.219,0,0,1-.065.172A.274.274,0,0,1-10.436-8.666Zm2.663.4a1.024,1.024,0,0,1,.851.34,1.4,1.4,0,0,1,.271.9v1.834a.177.177,0,0,1-.056.134A.185.185,0,0,1-6.837-5a.182.182,0,0,1-.134-.053.182.182,0,0,1-.053-.134V-7.007a1.019,1.019,0,0,0-.2-.658.756.756,0,0,0-.627-.253,1.087,1.087,0,0,0-.508.125,1.087,1.087,0,0,0-.39.334.761.761,0,0,0-.15.452v1.815a.182.182,0,0,1-.053.134A.182.182,0,0,1-9.089-5a.182.182,0,0,1-.134-.053.182.182,0,0,1-.053-.134V-7.986a.182.182,0,0,1,.053-.134.182.182,0,0,1,.134-.053.182.182,0,0,1,.134.053.182.182,0,0,1,.053.134v.343a1.323,1.323,0,0,1,.483-.446A1.3,1.3,0,0,1-7.773-8.267Zm4.8.075a.182.182,0,0,1,.134.053A.19.19,0,0,1-2.79-8v2.7a1.62,1.62,0,0,1-.2.833,1.342,1.342,0,0,1-.555.527,1.744,1.744,0,0,1-.808.181,2.015,2.015,0,0,1-.458-.056,1.826,1.826,0,0,1-.412-.143q-.172-.087-.2-.181a.137.137,0,0,1-.044-.1.115.115,0,0,1,.056-.1.1.1,0,0,1,.062-.019.484.484,0,0,1,.143.044l.131.056a2.011,2.011,0,0,0,.723.15,1.176,1.176,0,0,0,.87-.315,1.15,1.15,0,0,0,.315-.851V-5.66a1.15,1.15,0,0,1-.493.527,1.413,1.413,0,0,1-.7.19,1.441,1.441,0,0,1-.776-.215,1.512,1.512,0,0,1-.546-.6,1.811,1.811,0,0,1-.2-.854,1.8,1.8,0,0,1,.2-.848,1.512,1.512,0,0,1,.546-.6,1.43,1.43,0,0,1,.77-.215,1.374,1.374,0,0,1,.72.2,1.316,1.316,0,0,1,.483.471V-8a.192.192,0,0,1,.053-.137A.177.177,0,0,1-2.977-8.192Zm-1.353,2.9a1.157,1.157,0,0,0,.614-.165,1.13,1.13,0,0,0,.424-.468,1.493,1.493,0,0,0,.153-.683,1.474,1.474,0,0,0-.153-.68,1.134,1.134,0,0,0-.424-.465,1.157,1.157,0,0,0-.614-.165,1.114,1.114,0,0,0-.608.172,1.178,1.178,0,0,0-.424.471,1.446,1.446,0,0,0-.153.667,1.46,1.46,0,0,0,.153.674,1.178,1.178,0,0,0,.424.471A1.114,1.114,0,0,0-4.33-5.292Z" transform="translate(214.588 478.757)"/>
      </g>
    </g>
  </g>
</svg>
